<?xml version="1.0" encoding="utf-8"?>
<!-- Svg Vector Icons : http://www.onlinewebfonts.com/icon -->
<!DOCTYPE svg PUBLIC "-//W3C//DTD SVG 1.1//EN" "http://www.w3.org/Graphics/SVG/1.1/DTD/svg11.dtd">
<svg version="1.1" xmlns="http://www.w3.org/2000/svg" xmlns:xlink="http://www.w3.org/1999/xlink" x="0px" y="0px" viewBox="0 0 1000 1000" enable-background="new 0 0 1000 1000" xml:space="preserve">
<metadata> Svg Vector Icons : http://www.onlinewebfonts.com/icon </metadata>
<g><g transform="translate(0.000000,512.000000) scale(0.100000,-0.100000)"><path d="M4674.6,4991.1c-293.1-63.2-584.4-226.1-795.1-440.7l-93.9-97.7l-145.6-1.9c-78.6,0-206.9-7.7-285.5-15.3c-233.8-23-212.7,103.5-212.7-1323.9V1889.1l-69-101.6c-274-402.4-348.7-839.2-295.1-1722.5L2797-253l-51.7-122.6c-159-377.4,55.6-948.4,377.4-1005.9c189.7-32.6,201.2-32.6,252.9,9.6c76.6,59.4,86.2,145.6,32.6,306.6c-51.7,157.1-38.3,228,46,256.7c42.2,15.3,59.4,11.5,92-21.1l40.2-38.3l-67.1-208.8c-176.3-544.1-329.6-1201.3-350.6-1504c-32.6-419.6,212.7-896.7,574.8-1126.6c67.1-42.1,126.5-90,132.2-105.4c7.7-17.2,3.8-74.7-5.7-128.4c-28.7-151.4-23-419.6,9.6-517.3c61.3-176.3,206.9-295.1,392.8-318.1c268.2-30.6,461.8,145.6,546.1,496.3c47.9,199.2,57.5,557.5,21.1,714.7c-36.4,153.3-111.1,325.7-166.7,385.1c-28.7,30.7-46,95.8-67.1,249.1c-17.2,113.1-38.3,222.3-47.9,241.4c-13.4,23-11.5,47.9,3.8,74.7c11.5,23,17.2,72.8,9.6,111.1c-9.6,69-7.7,72.8,95.8,145.6c120.7,88.1,256.7,256.7,304.6,381.3l32.6,84.3l67.1-130.3c46-93.9,101.6-166.7,187.8-245.2c118.8-107.3,124.5-118.8,124.5-199.3c0-59.4,13.4-103.5,42.2-139.9c42.1-53.6,130.3-440.7,166.7-728.1c9.6-78.5,32.6-170.5,49.8-205c28.7-51.7,34.5-105.4,30.6-302.7c-7.6-456,86.2-754.9,274-871.8c84.3-51.7,111.1-57.5,241.4-57.5c130.3,0,157.1,5.7,239.5,57.5c61.3,38.3,109.2,90.1,145.6,153.3c95.8,170.5,118.8,291.2,122.6,670.6c3.8,304.6,9.6,356.4,46,440.7c23,53.7,38.3,130.3,36.4,172.4c-1.9,42.2,9.6,141.8,23,220.3c15.3,84.3,26.8,283.6,26.8,479c1.9,279.7-5.8,365.9-42.2,525c-38.3,170.5-153.3,578.6-187.8,670.6c-13.4,34.5-11.5,34.5,36.4,1.9c36.4-23,70.9-28.7,118.8-21.1c36.4,5.8,95.8,17.3,130.3,23c316.1,55.6,528.8,630.4,371.7,1004L7203.7-253l19.2,318.1c53.6,883.3-21.1,1320.1-295.1,1722.5l-69,101.6v1222.4c0,1427.4,21.1,1300.9-212.7,1323.9c-78.6,7.7-206.9,15.3-285.5,15.3l-145.6,1.9l-93.9,97.7c-189.7,193.5-467.5,356.4-728.1,427.3C5211.1,5027.5,4870.1,5035.1,4674.6,4991.1z M5402.7,4893.3c252.9-72.8,427.3-178.2,643.8-392.8c174.4-172.4,203.1-212.7,293.2-394.7c210.8-429.2,228-858.3,57.5-1373.7c-65.2-197.4-86.2-222.3-268.2-331.5c-120.7-72.8-465.6-208.8-525-208.8c-15.3,0-47.9,21.1-74.7,47.9l-47.9,47.9h-480.9h-480.9l-49.8-51.7c-49.8-47.9-55.6-49.8-137.9-26.8c-160.9,42.2-392.8,145.6-523.1,231.8c-109.2,70.9-134.1,97.7-166.7,180.1c-115,298.9-164.8,576.7-147.5,854.5c13.4,254.8,47.9,383.2,164.8,622.7c208.8,429.2,576.7,716.6,1046.1,821.9C4885.4,4960.4,5211.1,4948.9,5402.7,4893.3z M3716.7,4364.5c0-5.7-15.3-34.5-36.4-61.3c-57.5-82.4-138-252.9-185.9-392.8c-122.6-360.2-105.4-804.7,47.9-1247.3c36.4-99.6,36.4-115,11.5-151.4c-15.3-23-28.7-59.4-28.7-80.5c0-21.1-69-128.4-153.3-237.6l-153.3-197.4v1159.2c0,915.8,5.7,1163,24.9,1178.3C3277.9,4362.6,3716.7,4391.3,3716.7,4364.5z M6757.3,4333.9c19.2-15.3,24.9-256.7,24.9-1178.3V1996.4l-153.3,197.4c-84.3,109.2-153.3,216.5-153.3,237.6c0,21.1-13.4,57.5-28.7,80.5c-24.9,36.4-24.9,51.7,11.5,151.4c153.3,442.6,170.5,887.1,47.9,1247.3c-47.9,139.9-128.3,310.4-185.8,392.8c-21.1,26.8-36.4,55.6-36.4,65.1C6284.1,4389.4,6728.6,4358.8,6757.3,4333.9z M3766.5,2419.8c124.5-84.3,385.1-203.1,532.6-241.4c122.6-32.6,126.5-36.4,126.5-93.9v-61.3l-109.2,28.7c-354.5,92-756.8,323.8-705.1,408.1C3632.3,2492.6,3678.3,2481.1,3766.5,2419.8z M6389.4,2460c49.8-82.4-327.6-302.7-684-402.4l-130.3-36.4v61.3c0,61.3,3.8,63.2,130.3,95.8c139.9,36.4,434.9,172.4,540.3,249.1C6316.6,2481.1,6370.3,2492.6,6389.4,2460z M3689.8,2285.7c126.5-86.2,377.4-199.3,563.3-252.9l162.9-47.9l9.6-262.5c13.4-360.2-30.7-335.3,574.8-335.3s561.4-24.9,574.8,335.3l9.6,262.5l162.9,47.9c185.9,53.6,436.8,166.7,563.3,252.9c46,32.6,90,59.4,95.8,59.4c13.4,0,350.6-440.7,450.2-592c93.9-136,174.4-308.5,218.4-456l30.7-101.5l-80.5-55.6c-180.1-122.6-494.3-235.7-703.2-254.8c-74.7-5.7-76.6,1.9-47.9,143.7c7.7,44.1,5.7,70.9-5.8,70.9c-9.6,0-24.9-28.7-30.7-61.3c-23-115-38.3-120.7-115-46c-51.7,53.7-69,86.2-69,136c0,36.4-9.6,67.1-21.1,67.1c-15.3,0-19.2-28.7-11.5-88.1c7.7-69,21.1-99.6,65.2-134.1c53.6-42.1,57.5-55.6,69-216.5c7.7-95.8,34.5-318.1,61.3-492.4c32.6-218.4,42.2-325.7,28.8-343c-36.4-44.1-281.7-145.6-461.8-189.7c-99.6-24.9-268.2-55.6-377.4-67.1c-224.2-24.9-720.4-26.8-622.7-1.9c34.5,7.7,76.6,24.9,92,38.3c15.3,13.4,70.9,24.9,122.6,26.8c166.7,5.8,279.8,122.6,279.8,289.3c0,172.4-115,287.4-287.4,287.4c-159,0-274-103.5-291.2-264.4c-15.3-130.3-80.5-191.6-256.7-233.8c-76.6-19.2-197.3-36.4-266.3-36.4c-109.2-1.9-145.6,7.7-277.8,74.7l-153.3,76.6l3.8,76.6c9.6,180.1,19.2,197.3,107.3,210.8c44.1,7.7,132.2,34.5,197.3,59.4c63.2,24.9,132.2,46,153.3,46c21.1,0,57.5,13.4,80.5,30.7c24.9,17.2,86.2,32.6,138,34.5c164.8,5.8,277.8,122.6,277.8,289.3c0,172.4-115,287.4-287.4,287.4c-157.1,0-274-103.5-291.2-260.6c-13.4-115-74.7-185.8-199.3-228c-57.5-19.2-105.4-32.6-109.2-28.7c-3.8,1.9,3.8,76.6,15.3,164.8c9.6,88.1,19.2,195.4,19.2,239.5c0,49.8,23,128.4,57.5,203.1c55.6,116.9,76.6,264.4,38.3,264.4c-9.6,0-19.2-32.6-19.2-70.9c0-74.7-107.3-320-132.2-302.7c-9.6,3.8-26.8,47.9-40.2,95.8c-13.4,47.9-32.6,86.2-40.2,86.2c-24.9,0-21.1-24.9,11.5-124.5c17.2-47.9,26.8-93.9,21.1-103.5c-13.4-21.1-199.3,7.7-366,57.5c-147.5,44.1-331.5,132.2-425.3,203.1l-61.3,46l28.7,99.6c17.2,55.6,59.4,162.9,95.8,241.4c72.8,157.1,57.5,151.4,247.2,70.9c132.2-55.6,128.4-57.5,216.5,103.5l59.4,105.4l-122.6,65.1c-69,36.4-124.5,70.9-124.5,76.6c0,15.3,287.4,385.1,298.9,385.1C3599.8,2345.1,3643.8,2318.3,3689.8,2285.7z M4789.6,2015.5c0-295.1,5.7-302.7,206.9-302.7c210.8,0,214.6,5.7,214.6,300.8v235.7h124.5c199.2,0,201.2-5.8,201.2-411.9c0-310.4-3.8-339.1-38.3-373.6c-36.4-36.4-63.2-38.3-498.2-38.3c-434.9,0-461.7,1.9-498.2,38.3c-34.5,34.5-38.3,63.2-38.3,373.6c0,406.2,1.9,411.9,201.2,411.9h124.5V2015.5z M5172.8,2023.2c0-149.5-7.7-233.8-23-249.1c-13.4-13.4-76.6-23-149.5-23c-72.8,0-136,9.6-149.4,23c-15.3,15.3-23,99.6-23,249.1v226.1h172.4h172.5V2023.2z M3322,745.3c103.5-26.8,208.8-47.9,235.7-47.9c63.2,0,76.6-51.7,26.8-99.6c-32.6-28.7-57.5-36.4-99.6-26.8c-30.7,5.8-55.6,3.8-55.6-5.7c0-21.1,47.9-40.2,97.7-40.2c32.6,0,36.4-9.6,26.8-61.3c-5.7-34.5-26.8-168.6-47.9-297c-42.2-252.9-53.6-295.1-84.3-316.1c-34.5-23-113-17.2-172.4,13.4c-63.2,34.5-69,34.5-69,9.6c0-40.2,120.7-80.5,205-69c74.7,9.6,84.3,7.7,78.5-23c-11.5-63.2-145.6-109.2-321.9-109.2c-222.3,0-258.7,23-274,178.2c-21.1,201.2-38.3,892.9-24.9,984.8l13.4,90l137.9-67.1C3071,821.9,3218.5,772.1,3322,745.3z M7157.7,410c-7.7-226.1-17.2-471.3-24.9-542.2c-15.3-174.4-46-195.4-274-195.4c-189.7,0-312.3,46-321.9,120.7c-3.8,23-3.8,42.1,0,42.1c3.8,0,40.2-13.4,82.4-28.7c86.2-30.7,201.2-38.3,201.2-11.5c0,7.7-36.4,21.1-82.4,26.8c-197.3,26.8-195.4,24.9-262.5,452.2c-42.2,275.9-40.2,289.3,51.7,289.3c51.7,0,149.4,36.4,136,49.8c-5.7,3.8-59.4,1.9-118.8-7.7c-76.6-13.4-116.9-11.5-139.9,5.7c-53.6,40.2-15.3,80.5,88.1,93.9c145.6,19.2,410,99.6,534.6,162.9l109.2,55.6l15.3-51.7C7161.6,844.9,7163.5,636,7157.7,410z M3755,609.2c-11.5-93.9-24.9-172.4-28.7-176.3c-3.8-3.8-24.9-1.9-46,5.8c-47.9,15.3-51.7,69-9.6,134.1c15.3,24.9,26.8,67.1,23,92c-5.7,42.1,55.6,139.9,74.7,120.7C3772.2,781.7,3766.5,703.1,3755,609.2z M6307.1,668.6c-3.8-26.8,5.7-67.1,21.1-92c34.5-53.7,136-639.9,130.3-760.6c-3.8-70.9-49.8-168.6-70.9-147.5c-7.7,5.7-130.3,843-151.4,1019.3l-13.4,115l47.9-44.1C6303.2,728,6314.7,701.2,6307.1,668.6z M4214.8,496.2c38.3-46,13.4-92-76.6-147.5c-101.5-61.3-279.7-111.1-402.4-111.1c-116.9,0-139.9,17.2-124.5,97.7l11.5,65.1l137.9,1.9c115,0,157.1,9.6,252.9,59.4C4145.8,530.7,4182.2,536.4,4214.8,496.2z M3691.7,191.5c9.6-9.6-40.2-291.3-53.7-308.5c-11.5-11.5-30.7-3.8-53.6,19.2c-32.6,34.5-32.6,51.7-15.3,178.2c21.1,137.9,21.1,139.9,69,128.4C3664.9,201.1,3689.8,193.5,3691.7,191.5z M3825.9-253c214.6-49.8,494.3-26.8,756.8,63.2c124.5,42.1,153.3,46,178.2,24.9c17.2-13.4,28.7-42.1,24.9-65.2c-21.1-137.9-645.7-249.1-981-176.3c-182,42.2-252.9,97.7-266.3,214.6l-9.6,80.5l93.9-57.5C3672.6-201.2,3764.6-239.6,3825.9-253z M6241.9-527c-55.6-82.4-82.4-103.4-206.9-157.1c-78.6-32.6-247.2-82.4-373.6-109.2c-203.1-42.1-277.8-49.8-641.9-49.8c-509.6-1.9-760.6,36.4-1063.4,162.9c-115,47.9-143.7,69-199.3,155.2l-63.2,97.7l63.2-13.4c36.4-7.6,126.5-17.2,199.3-23c74.7-5.7,206.9-26.8,297-46c643.8-141.8,1437-84.3,1877.7,137.9l162.9,82.4l5.8-70.9C6303.2-413.9,6289.8-452.2,6241.9-527z M3141.9-366c120.7,0,185.9,9.6,245.2,36.4c47.9,23,88.1,30.7,97.7,19.2c310.4-348.7,402.4-544.1,264.4-559.4c-44.1-5.8-70.9,9.6-130.3,74.7c-67.1,72.8-80.5,78.6-143.7,69c-157.1-26.8-210.8-155.2-143.7-346.8c47.9-139.9,49.8-180.1,7.7-226.1c-42.1-47.9-113-44.1-166.7,9.6c-42.2,42.1-107.3,258.7-107.3,356.4c0,23-7.7,40.2-19.2,40.2c-28.7,0-23-74.7,19.2-239.5c21.1-82.4,34.5-153.3,28.7-159c-17.2-19.2-72.8,46-107.3,124.5c-19.2,46-46,134.1-59.4,197.3c-11.5,63.2-30.6,115-38.3,115c-26.8,0-17.2-86.2,23-212.7c19.2-67.1,34.5-124.5,30.7-128.4c-21.1-19.2-145.6,279.7-164.8,400.4c-26.8,159-19.2,233.8,38.3,385.1l40.2,111.1l61.3-34.5C2961.8-356.4,3023.1-366,3141.9-366z M6667.3-346.9c105.4-40.2,325.7-30.7,413.8,15.3l61.3,30.6l49.8-134.1c57.5-153.3,61.3-222.2,21.1-406.2c-23-113.1-137.9-369.8-157.1-352.6c-3.8,3.8,5.7,42.2,21.1,86.2c40.2,115,59.4,252.9,32.6,252.9c-11.5,0-21.1-17.3-21.1-36.4c0-124.5-143.7-440.7-182-400.4c-5.7,3.8,7.7,76.6,28.7,159c42.1,164.8,47.9,239.5,19.2,239.5c-9.6,0-19.2-19.2-19.2-44.1c0-95.8-74.7-329.6-116.9-362.1c-51.7-42.2-109.2-44.1-155.2-1.9c-44.1,40.2-44.1,86.2,5.7,228c67.1,191.6,13.4,320-143.7,346.8c-63.2,9.6-76.6,3.8-143.7-69c-59.4-65.1-86.2-80.5-130.3-74.7c-80.5,9.6-82.4,90-5.7,212.7c99.6,160.9,274,360.2,306.6,350.6C6567.6-312.4,6619.4-329.6,6667.3-346.9z M4078.8-766.5c295.1-93.9,473.3-115,921.6-115c459.8,0,647.6,24.9,944.6,122.6c92,32.6,172.4,57.5,176.3,57.5s1.9-32.6-3.8-70.9c-7.7-55.6,0-86.2,32.6-126.4c38.3-47.9,53.6-53.7,128.4-47.9l86.2,5.7l47.9-124.5c78.5-208.8,239.5-743.4,231.8-777.9c-7.7-44.1-270.1-149.4-513.5-206.9c-252.9-61.3-475.2-88.1-710.8-88.1c-153.3,0-189.7,5.7-214.6,34.5c-40.2,44.1-137.9,262.5-157.1,343c-9.6,53.6-30.7,70.9-130.3,118.8c-65.2,32.6-147.5,84.3-183.9,116.9c-34.5,32.6-69,53.6-74.7,47.9c-21.1-19.2,113-138,208.8-182c51.7-24.9,93.9-55.6,93.9-69c0-55.5-80.5-272.1-124.5-337.2l-49.8-72.8h-137.9c-203.1,0-454.1,34.5-693.6,95.8c-228,57.5-544.1,182-557.6,220.3c-11.5,26.8,51.7,262.5,168.6,634.2l78.5,251l80.5-7.7c70.9-9.6,84.3-3.8,122.6,44.1c34.5,44.1,42.2,72.8,34.5,128.4c-7.7,53.7-3.8,70.9,13.4,65.2C3910.2-712.8,3992.5-739.6,4078.8-766.5z M6590.6-835.4c49.8-49.8,47.9-92-3.8-249.1l-44.1-128.4l-61.3,174.3c-55.6,160.9-57.5,176.3-30.6,208.8C6491-785.6,6542.7-787.5,6590.6-835.4z M3682.2-2178.5c195.4-69,488.6-134.1,733.8-160.9c105.4-13.4,111.1-15.3,76.6-42.2c-38.3-28.7-115-26.8-277.8,5.7c-53.6,9.6-63.2,7.7-44.1-11.5c11.5-13.4,82.4-32.6,155.2-44.1c109.2-17.3,139.9-30.7,159-65.1c47.9-88.1-69-216.5-195.4-216.5c-21.1,0-36.4-7.7-36.4-19.2c0-28.7,67.1-23,147.5,9.6c36.4,15.3,70.9,28.7,74.7,28.7c13.4,0,44.1-147.5,63.2-306.6c11.5-90,30.7-193.5,40.2-229.9c65.1-224.2-47.9-442.6-254.8-500.1c-132.2-36.4-344.9-9.6-484.7,59.4c-327.6,160.9-601.6,622.7-601.6,1015.5c0,84.3,63.2,500.1,88.1,578.6c9.6,32.6,15.3,32.6,80.5,3.8C3444.6-2090.4,3569.1-2138.3,3682.2-2178.5z M6740.1-2236c30.7-168.6,17.3-662.9-23-867.9c-28.7-147.5-88.1-222.2-176.3-222.2c-24.9,0-46-7.7-46-19.2c0-32.6,82.4-21.1,151.4,21.1l65.1,38.3l-11.5-44.1c-17.2-72.8-86.2-247.1-111.1-277.8c-47.9-57.5-216.5-126.4-333.4-136c-136-9.6-321.9,32.6-419.6,95.8c-57.5,38.3-199.2,245.2-153.3,222.2c9.6-3.8,40.2-19.2,70.9-32.6c28.7-15.3,57.5-21.1,67.1-11.5c7.7,7.7,1.9,19.2-11.5,23c-70.9,24.9-136,105.4-147.5,183.9c-7.7,44.1-34.5,191.6-59.4,327.6c-26.8,134.1-44.1,249.1-40.2,254.8c5.7,3.8,36.4-5.8,69-21.1c65.2-34.5,78.6-36.4,78.6-15.3c0,9.6-28.7,28.7-63.2,46c-34.5,17.2-90,53.7-124.5,82.4c-53.7,44.1-61.3,63.2-61.3,141.8v92l183.9,13.4c252.9,17.2,546.1,76.6,779.8,157.1c107.3,38.3,208.8,76.6,224.2,86.2C6699.8-2069.3,6715.2-2090.4,6740.1-2236z M4703.4-3462.2c51.7-218.4,30.7-557.6-49.8-800.9c-118.8-356.4-448.3-434.9-661-157.1l-69,88.1l13.4,210.8c7.7,116.9,13.4,243.3,15.3,281.7l1.9,70.9l155.2-11.5c92-5.7,185.9-1.9,235.7,11.5c168.6,46,291.2,218.4,291.2,411.9C4638.2-3255.3,4663.1-3297.5,4703.4-3462.2z M6033.1-3766.9c153.3-36.4,329.5-15.3,463.7,53.6l111.1,57.5l13.4-69c7.7-36.4,7.7-170.5,1.9-297c-9.6-195.4-19.2-245.2-61.3-333.4c-157.1-318-590.1-318-747.2,0c-42.2,88.1-51.7,137.9-61.3,333.4c-5.8,126.4-5.8,260.6,1.9,297l13.4,69l80.5-44.1C5893.2-3722.8,5975.6-3753.4,6033.1-3766.9z"/><path d="M4703.4,4519.7c-279.7-57.5-530.7-231.8-657.2-454.1c-65.2-115-124.5-291.2-159-471.3c-15.3-86.2-40.2-143.7-86.2-201.2c-107.3-132.2-130.3-281.7-72.8-473.3c111.1-373.6,475.2-561.4,1147.7-588.2c724.2-28.7,1203.2,145.6,1358.4,492.4c99.6,220.3,86.2,417.7-38.3,572.9c-34.5,46-69,115-76.6,153.3c-90,532.6-310.4,820-735.7,950.3C5236,4544.6,4873.9,4556.1,4703.4,4519.7z M5531.1,4226.6c111.1-57.5,195.4-147.5,256.7-281.7c82.4-172.4,67.1-304.6-49.8-411.9c-44.1-40.2-69-47.9-168.6-46c-149.5,0-270.2,59.4-410,199.3c-249.1,249.1-252.9,477.1-13.4,567.1C5245.6,4289.8,5429.5,4278.3,5531.1,4226.6z M5987.1,3331.8c26.8-24.9,47.9-69,47.9-95.8c0-26.8-21.1-70.9-47.9-95.8c-24.9-26.8-69-47.9-95.8-47.9c-26.8,0-70.9,21.1-95.8,47.9c-26.8,24.9-47.9,69-47.9,95.8c0,26.8,21.1,70.9,47.9,95.8c24.9,26.8,69,47.9,95.8,47.9C5918.1,3379.7,5962.2,3358.6,5987.1,3331.8z"/><path d="M5546.4,1184c-84.3-13.4-182-24.9-214.6-24.9c-63.2-1.9-63.2-3.8-63.2-92c0-51.7,5.7-124.5,11.5-162.9c11.5-70.9,15.3-72.8,92-70.9c95.8,0,369.8,44.1,387,61.3c21.1,21.1-13.4,320-38.3,318C5709.3,1210.8,5630.7,1197.4,5546.4,1184z"/><path d="M5726.5,747.2c-5.7-5.8-105.4-19.2-224.2-32.6l-214.6-23v-67.1v-67.1l159,15.3c174.3,13.4,316.1,38.3,331.5,53.6c5.7,5.8,5.7,36.4-1.9,69C5764.8,751,5747.6,768.3,5726.5,747.2z"/><path d="M6561.9-2782.1c-51.7-24.9-145.6-49.8-205-57.5c-61.3-7.7-111.1-21.1-111.1-32.6c0-53.6,417.7,57.5,436.8,116.9C6692.2-2724.6,6673-2728.4,6561.9-2782.1z"/></g></g>
</svg>